<svg width="24" height="21" viewBox="0 0 24 21" fill="none" xmlns="http://www.w3.org/2000/svg">
<g filter="url(#filter0_d_3_188)">
<path d="M8.25 5.25V3C8.25 2.40326 8.48705 1.83097 8.90901 1.40901C9.33097 0.987053 9.90326 0.75 10.5 0.75H13.5C14.0967 0.75 14.669 0.987053 15.091 1.40901C15.5129 1.83097 15.75 2.40326 15.75 3C15.75 3.59674 15.5129 4.16903 15.091 4.59099C14.669 5.01295 14.0967 5.25 13.5 5.25H3.75V13.5C3.75 14.4946 4.14509 15.4484 4.84835 16.1517C5.55161 16.8549 6.50544 17.25 7.5 17.25H16.5C17.4946 17.25 18.4484 16.8549 19.1517 16.1517C19.8549 15.4484 20.25 14.4946 20.25 13.5V5.25H17.5" stroke="#111111" stroke-width="1.5" shape-rendering="crispEdges"/>
</g>
<defs>
<filter id="filter0_d_3_188" x="-1" y="0" width="26" height="26" filterUnits="userSpaceOnUse" color-interpolation-filters="sRGB">
<feFlood flood-opacity="0" result="BackgroundImageFix"/>
<feColorMatrix in="SourceAlpha" type="matrix" values="0 0 0 0 0 0 0 0 0 0 0 0 0 0 0 0 0 0 127 0" result="hardAlpha"/>
<feOffset dy="4"/>
<feGaussianBlur stdDeviation="2"/>
<feComposite in2="hardAlpha" operator="out"/>
<feColorMatrix type="matrix" values="0 0 0 0 0 0 0 0 0 0 0 0 0 0 0 0 0 0 0.25 0"/>
<feBlend mode="normal" in2="BackgroundImageFix" result="effect1_dropShadow_3_188"/>
<feBlend mode="normal" in="SourceGraphic" in2="effect1_dropShadow_3_188" result="shape"/>
</filter>
</defs>
</svg>
